<svg xmlns="http://www.w3.org/2000/svg" width="560" height="150" viewBox="0 0 560 150" role="img" aria-labelledby="title desc">
  <title id="title">Codori app header rough 04</title>
  <desc id="desc">Codori app header logo based on rough 04, with a simple white bird icon and Deep Blue wordmark.</desc>
  <defs>
    <filter id="softShadow" x="-20%" y="-20%" width="140%" height="140%">
      <feDropShadow dx="0" dy="5" stdDeviation="6" flood-color="#1f2933" flood-opacity="0.12"/>
    </filter>
  </defs>

  <rect width="560" height="150" fill="none"/>

  <g transform="translate(8 11)" filter="url(#softShadow)">
    <circle cx="64" cy="64" r="62" fill="#eaf2fb"/>
    <g transform="translate(18 17)">
      <path d="M39 31
        C41 22 50 20 54 28
        C61 22 70 26 67 35"
        fill="#ffffff" stroke="#1f2933" stroke-width="3.6" stroke-linecap="round" stroke-linejoin="round"/>
      <path d="M47 28
        C28 28 16 44 16 65
        C16 89 31 103 47 103
        C63 103 78 89 78 65
        C78 44 66 28 47 28Z"
        fill="#ffffff" stroke="#1f2933" stroke-width="4.6" stroke-linecap="round" stroke-linejoin="round"/>
      <path d="M21 67 C12 74 13 89 23 95" fill="none" stroke="#1f2933" stroke-width="4" stroke-linecap="round"/>
      <path d="M73 67 C82 74 81 89 71 95" fill="none" stroke="#1f2933" stroke-width="4" stroke-linecap="round"/>
      <circle cx="36" cy="60" r="5.5" fill="#1f2933"/>
      <circle cx="58" cy="60" r="5.5" fill="#1f2933"/>
      <circle cx="38" cy="58" r="2" fill="#ffffff"/>
      <circle cx="60" cy="58" r="2" fill="#ffffff"/>
      <path d="M42 69
        C45 66 49 66 52 69
        C50 74 44 74 42 69Z"
        fill="#1f2933" stroke="#1f2933" stroke-width="2" stroke-linejoin="round"/>
      <circle cx="29" cy="72" r="5.5" fill="#f8dbc8" opacity="0.65"/>
      <circle cx="65" cy="72" r="5.5" fill="#f8dbc8" opacity="0.65"/>
    </g>
  </g>

  <g transform="translate(146 31)">
    <text x="0" y="78"
      font-family="Arial Rounded MT Bold, Hiragino Maru Gothic ProN, Hiragino Sans, system-ui, sans-serif"
      font-size="80"
      font-weight="800"
      letter-spacing="0"
      fill="#1e5aa8">Codori</text>
    <path d="M298 18 C302 7 315 7 318 18 C329 20 333 32 324 39 C326 50 314 57 305 51 C296 57 285 50 287 39 C278 32 287 21 298 18Z"
      fill="#fff8e9" stroke="#d89b2b" stroke-width="3.5" stroke-linejoin="round"/>
    <circle cx="281" cy="52" r="3.5" fill="#8bb6e8"/>
    <circle cx="294" cy="65" r="3" fill="#8bb6e8"/>
  </g>
</svg>
